<svg width="278" height="39" viewBox="0 0 278 39" fill="none" xmlns="http://www.w3.org/2000/svg">
<path d="M5.36 30.2V25.64H12.68C14.0133 25.64 15.0267 25.28 15.72 24.56C16.4133 23.8133 16.76 22.8 16.76 21.52C16.76 20.24 16.4133 19.2533 15.72 18.56C15.0267 17.84 14.0133 17.48 12.68 17.48H5.36V14H12.28C14.2267 14 15.96 14.24 17.48 14.72C19.0267 15.1733 20.2267 15.9467 21.08 17.04C21.96 18.1333 22.4 19.6 22.4 21.44V22C22.4 23.7333 22.0133 25.2133 21.24 26.44C20.4933 27.64 19.36 28.5733 17.84 29.24C16.3467 29.88 14.4933 30.2 12.28 30.2H5.36ZM0.6 30.2V0.599999H6.16V30.2H0.6ZM5.36 16.56V13.08H11.6C12.96 13.08 13.96 12.72 14.6 12C15.24 11.28 15.56 10.32 15.56 9.12C15.56 7.92 15.24 6.96 14.6 6.24C13.96 5.52 12.96 5.16 11.6 5.16H5.36V0.599999H11.08C14.3867 0.599999 16.8933 1.29333 18.6 2.68C20.3333 4.06667 21.2 6.05333 21.2 8.64V9.2C21.2 11.0133 20.76 12.4667 19.88 13.56C19.0267 14.6267 17.84 15.4 16.32 15.88C14.8 16.3333 13.0533 16.56 11.08 16.56H5.36ZM37.2238 30.76C35.3571 30.76 33.7171 30.44 32.3038 29.8C30.9171 29.16 29.7571 28.3067 28.8238 27.24C27.9171 26.1467 27.2238 24.9333 26.7438 23.6C26.2904 22.2667 26.0638 20.9067 26.0638 19.52V18.76C26.0638 17.32 26.2904 15.9333 26.7438 14.6C27.2238 13.24 27.9171 12.04 28.8238 11C29.7571 9.93333 30.9038 9.09333 32.2638 8.48C33.6238 7.84 35.1971 7.52 36.9838 7.52C39.3304 7.52 41.2904 8.04 42.8638 9.08C44.4638 10.0933 45.6638 11.44 46.4638 13.12C47.2638 14.7733 47.6638 16.56 47.6638 18.48V20.48H28.4238V17.08H44.1838L42.4638 18.76C42.4638 17.3733 42.2638 16.1867 41.8638 15.2C41.4638 14.2133 40.8504 13.4533 40.0238 12.92C39.2238 12.3867 38.2104 12.12 36.9838 12.12C35.7571 12.12 34.7171 12.4 33.8638 12.96C33.0104 13.52 32.3571 14.3333 31.9038 15.4C31.4771 16.44 31.2638 17.6933 31.2638 19.16C31.2638 20.52 31.4771 21.7333 31.9038 22.8C32.3304 23.84 32.9838 24.6667 33.8638 25.28C34.7438 25.8667 35.8638 26.16 37.2238 26.16C38.5838 26.16 39.6904 25.8933 40.5438 25.36C41.3971 24.8 41.9438 24.12 42.1838 23.32H47.3038C46.9838 24.8133 46.3704 26.12 45.4637 27.24C44.5571 28.36 43.3971 29.2267 41.9838 29.84C40.5971 30.4533 39.0104 30.76 37.2238 30.76ZM52.3084 30V8.28H56.7084V17.48H56.5884C56.5884 14.36 57.2551 12 58.5884 10.4C59.9218 8.8 61.8818 8 64.4684 8H65.2684V12.84H63.7484C61.8818 12.84 60.4284 13.3467 59.3884 14.36C58.3751 15.3467 57.8684 16.7867 57.8684 18.68V30H52.3084ZM84.1881 30L76.9081 19.84H73.6681L82.9081 8.28H88.7081L80.1881 18.96L80.3081 16.16L90.4681 30H84.1881ZM68.9881 30V0.799999H74.5481V30H68.9881ZM106.523 30V23.56H105.603V16.4C105.603 15.1467 105.296 14.2133 104.683 13.6C104.07 12.9867 103.123 12.68 101.843 12.68C101.176 12.68 100.376 12.6933 99.4431 12.72C98.5098 12.7467 97.5631 12.7867 96.6031 12.84C95.6698 12.8667 94.8298 12.9067 94.0831 12.96V8.24C94.6965 8.18667 95.3898 8.13333 96.1631 8.08C96.9365 8.02667 97.7231 8 98.5231 8C99.3498 7.97333 100.123 7.96 100.843 7.96C103.083 7.96 104.936 8.25333 106.403 8.84C107.896 9.42667 109.016 10.3467 109.763 11.6C110.536 12.8533 110.923 14.4933 110.923 16.52V30H106.523ZM99.5231 30.56C97.9498 30.56 96.5631 30.28 95.3631 29.72C94.1898 29.16 93.2698 28.36 92.6031 27.32C91.9631 26.28 91.6431 25.0267 91.6431 23.56C91.6431 21.96 92.0298 20.6533 92.8031 19.64C93.6031 18.6267 94.7098 17.8667 96.1231 17.36C97.5631 16.8533 99.2431 16.6 101.163 16.6H106.203V19.92H101.083C99.8031 19.92 98.8165 20.24 98.1231 20.88C97.4565 21.4933 97.1231 22.2933 97.1231 23.28C97.1231 24.2667 97.4565 25.0667 98.1231 25.68C98.8165 26.2933 99.8031 26.6 101.083 26.6C101.856 26.6 102.563 26.4667 103.203 26.2C103.87 25.9067 104.416 25.4267 104.843 24.76C105.296 24.0667 105.55 23.1333 105.603 21.96L106.963 23.52C106.83 25.04 106.456 26.32 105.843 27.36C105.256 28.4 104.43 29.2 103.363 29.76C102.323 30.2933 101.043 30.56 99.5231 30.56ZM115.965 38.56V33.8H120.045C120.819 33.8 121.459 33.6933 121.965 33.48C122.499 33.2933 122.939 32.9733 123.285 32.52C123.632 32.0933 123.899 31.4933 124.085 30.72L129.925 8.28H135.245L128.805 31.92C128.379 33.5467 127.779 34.84 127.005 35.8C126.232 36.7867 125.232 37.4933 124.005 37.92C122.805 38.3467 121.312 38.56 119.525 38.56H115.965ZM122.725 29.52V25.12H127.365V29.52H122.725ZM120.845 29.52L113.805 8.28H119.405L126.085 29.52H120.845ZM151.368 30.12V28.16H160.288C162.181 28.16 163.661 27.6 164.728 26.48C165.794 25.36 166.328 23.92 166.328 22.16C166.328 20.3733 165.808 18.9333 164.768 17.84C163.728 16.72 162.234 16.16 160.288 16.16H151.368V14.64H159.928C161.634 14.64 163.128 14.92 164.408 15.48C165.688 16.0133 166.688 16.8267 167.408 17.92C168.154 19.0133 168.528 20.36 168.528 21.96V22.36C168.528 23.8533 168.208 25.1867 167.568 26.36C166.954 27.5067 166.008 28.4267 164.728 29.12C163.448 29.7867 161.848 30.12 159.928 30.12H151.368ZM149.888 30.12V0.679998H152.048V30.12H149.888ZM151.368 15.76V14.24H159.208C161.234 14.24 162.728 13.7067 163.688 12.64C164.648 11.5467 165.128 10.1467 165.128 8.44C165.128 6.76 164.648 5.37333 163.688 4.28C162.728 3.18667 161.234 2.64 159.208 2.64H151.368V0.679998H158.808C161.688 0.679998 163.821 1.37333 165.208 2.76C166.621 4.12 167.328 5.93333 167.328 8.2V8.6C167.328 10.1733 166.981 11.4933 166.288 12.56C165.594 13.6267 164.608 14.4267 163.328 14.96C162.074 15.4933 160.568 15.76 158.808 15.76H151.368ZM176.928 30V9H179.088V30H176.928ZM173.448 10.84V9H179.088V10.84H173.448ZM177.128 4.6C176.568 4.6 176.141 4.45333 175.848 4.16C175.554 3.84 175.408 3.44 175.408 2.96C175.408 2.45333 175.554 2.04 175.848 1.72C176.141 1.4 176.581 1.24 177.168 1.24C177.728 1.24 178.154 1.4 178.448 1.72C178.741 2.04 178.888 2.45333 178.888 2.96C178.888 3.44 178.741 3.84 178.448 4.16C178.181 4.45333 177.741 4.6 177.128 4.6ZM195.81 30.68C194.237 30.68 192.81 30.3867 191.53 29.8C190.277 29.1867 189.21 28.3733 188.33 27.36C187.45 26.32 186.77 25.1467 186.29 23.84C185.837 22.5333 185.61 21.16 185.61 19.72V19.32C185.61 17.9333 185.837 16.6 186.29 15.32C186.743 14.0133 187.397 12.84 188.25 11.8C189.13 10.7333 190.197 9.89333 191.45 9.28C192.703 8.66667 194.143 8.36 195.77 8.36C197.663 8.36 199.303 8.78667 200.69 9.64C202.103 10.4933 203.197 11.6667 203.97 13.16C204.77 14.6267 205.197 16.3067 205.25 18.2L204.17 15.84V0.799999H206.29V30H204.61V20.68H205.41C205.357 22.68 204.917 24.44 204.09 25.96C203.263 27.4533 202.13 28.6133 200.69 29.44C199.277 30.2667 197.65 30.68 195.81 30.68ZM196.01 28.76C197.637 28.76 199.063 28.4 200.29 27.68C201.543 26.96 202.517 25.9867 203.21 24.76C203.93 23.5067 204.29 22.08 204.29 20.48V18.4C204.29 16.88 203.93 15.5067 203.21 14.28C202.517 13.0533 201.543 12.08 200.29 11.36C199.063 10.64 197.637 10.28 196.01 10.28C194.25 10.28 192.757 10.7067 191.53 11.56C190.303 12.4133 189.357 13.5467 188.69 14.96C188.05 16.3467 187.73 17.8667 187.73 19.52C187.73 21.2267 188.063 22.7867 188.73 24.2C189.397 25.5867 190.343 26.6933 191.57 27.52C192.823 28.3467 194.303 28.76 196.01 28.76ZM223.078 30.68C221.292 30.68 219.745 30.3733 218.438 29.76C217.132 29.12 216.065 28.28 215.238 27.24C214.412 26.1733 213.785 24.9867 213.358 23.68C212.958 22.3467 212.758 21 212.758 19.64V19.24C212.758 17.8533 212.958 16.52 213.358 15.24C213.785 13.96 214.412 12.8 215.238 11.76C216.092 10.6933 217.145 9.86667 218.398 9.28C219.678 8.66667 221.158 8.36 222.838 8.36C224.972 8.36 226.758 8.84 228.198 9.8C229.665 10.7333 230.772 11.96 231.518 13.48C232.265 15 232.638 16.6 232.638 18.28V19.72H213.758V17.96H231.238L230.598 18.76C230.598 17.1333 230.292 15.68 229.678 14.4C229.092 13.12 228.212 12.12 227.038 11.4C225.892 10.6533 224.492 10.28 222.838 10.28C221.052 10.28 219.558 10.6933 218.358 11.52C217.158 12.3467 216.252 13.4533 215.638 14.84C215.052 16.2267 214.758 17.76 214.758 19.44C214.758 21.12 215.052 22.6667 215.638 24.08C216.252 25.4667 217.172 26.6 218.398 27.48C219.625 28.3333 221.185 28.76 223.078 28.76C225.105 28.76 226.732 28.2933 227.958 27.36C229.212 26.4267 229.972 25.3067 230.238 24H232.318C232.025 25.3067 231.465 26.4667 230.638 27.48C229.812 28.4933 228.758 29.28 227.478 29.84C226.225 30.4 224.758 30.68 223.078 30.68ZM247.337 30.68C245.604 30.68 244.084 30.36 242.777 29.72C241.497 29.08 240.417 28.2267 239.537 27.16C238.684 26.0933 238.044 24.9067 237.617 23.6C237.191 22.2933 236.977 20.9733 236.977 19.64V19.24C236.977 17.88 237.191 16.5467 237.617 15.24C238.044 13.9333 238.684 12.7733 239.537 11.76C240.417 10.72 241.497 9.89333 242.777 9.28C244.084 8.66667 245.604 8.36 247.337 8.36C249.017 8.36 250.511 8.66667 251.817 9.28C253.151 9.89333 254.231 10.76 255.057 11.88C255.911 12.9733 256.444 14.2933 256.657 15.84H254.577C254.337 14.24 253.591 12.92 252.337 11.88C251.084 10.8133 249.417 10.28 247.337 10.28C245.497 10.28 243.964 10.6933 242.737 11.52C241.511 12.3467 240.591 13.4533 239.977 14.84C239.391 16.2267 239.097 17.76 239.097 19.44C239.097 21.0667 239.404 22.5867 240.017 24C240.631 25.4133 241.551 26.56 242.777 27.44C244.004 28.2933 245.524 28.72 247.337 28.72C248.751 28.72 249.991 28.4667 251.057 27.96C252.151 27.4267 253.031 26.7333 253.697 25.88C254.364 25 254.764 24.04 254.897 23H256.977C256.791 24.5467 256.257 25.8933 255.377 27.04C254.497 28.16 253.364 29.0533 251.977 29.72C250.591 30.36 249.044 30.68 247.337 30.68ZM263.92 30V9H266.08V30H263.92ZM260.44 10.84V9H266.08V10.84H260.44ZM264.12 4.6C263.56 4.6 263.133 4.45333 262.84 4.16C262.546 3.84 262.4 3.44 262.4 2.96C262.4 2.45333 262.546 2.04 262.84 1.72C263.133 1.4 263.573 1.24 264.16 1.24C264.72 1.24 265.146 1.4 265.44 1.72C265.733 2.04 265.88 2.45333 265.88 2.96C265.88 3.44 265.733 3.84 265.44 4.16C265.173 4.45333 264.733 4.6 264.12 4.6Z" fill="black"/>
<path d="M273.162 30V25.12H277.802V30H273.162Z" fill="#CDDC39"/>
</svg>
